<svg width="196" height="59" viewBox="0 0 196 59" fill="none" xmlns="http://www.w3.org/2000/svg">
<mask id="mask0_108_1088" style="mask-type:luminance" maskUnits="userSpaceOnUse" x="10" y="10" width="176" height="39">
<path d="M185.996 10H10.0044V48.0788H185.996V10Z" fill="white"/>
</mask>
<g mask="url(#mask0_108_1088)">
<path d="M29.4337 44.4174C38.101 44.4174 45.1272 37.5324 45.1272 29.0394C45.1272 20.5464 38.101 13.6614 29.4337 13.6614C20.7664 13.6614 13.7402 20.5464 13.7402 29.0394C13.7402 37.5324 20.7664 44.4174 29.4337 44.4174Z" fill="url(#paint0_radial_108_1088)"/>
<path d="M45.0525 30.9434C44.1557 38.193 38.0278 43.9049 30.48 44.4175V41.5616C36.1595 41.1222 40.7929 37.0214 41.9138 31.7489L45.0525 30.9434Z" fill="#801D22"/>
<path d="M29.4337 13.6614C20.7649 13.6614 13.7402 20.5449 13.7402 29.0394C13.7402 35.2638 17.5515 40.6827 23.0069 43.0993V47.0536L25.9214 44.1245V41.1953C20.5407 39.5843 16.58 34.7512 16.58 29.0394C16.58 22.0827 22.3343 16.4441 29.4337 16.4441C32.423 16.4441 35.1133 17.4693 37.2805 19.0803L40.5686 18.2016C37.8036 15.3457 33.8429 13.6614 29.4337 13.6614Z" fill="#801D22"/>
<path d="M38.7012 32.5545L39.4485 33.0671L45.427 31.1631L45.0533 30.9434L38.7012 32.5545Z" fill="#211F20"/>
<path d="M47.3702 21.6433L46.4734 22.3755L27.3423 27.4283L31.303 33.8724V44.7835H30.481V34.385L25.8477 27.1354L47.3702 21.6433Z" fill="#9F1C21"/>
<path d="M48.8645 29.0394C48.8645 29.3323 48.8645 29.6252 48.8645 29.9914C48.4161 39.7308 40.4199 47.5662 30.5554 48.0788C30.1817 48.0788 29.8828 48.0788 29.5092 48.0788C28.3135 48.0788 27.1178 47.9324 25.9221 47.7859V35.7032L19.1216 24.0599L37.3559 19.0803L40.6441 18.2016C37.8043 15.3457 33.8436 13.6614 29.4344 13.6614C20.7656 13.6614 13.7409 20.5449 13.7409 29.0394C13.7409 35.2638 17.5522 40.6827 23.0076 43.0993V47.0536C15.4598 44.4174 10.0044 37.3142 10.0044 29.0394C10.0044 18.4945 18.6732 10 29.4344 10C35.5624 10 41.0177 12.7827 44.6048 17.1032C45.7258 18.4945 46.6973 19.9591 47.3699 21.6433L43.708 22.5953L40.8683 23.3276L25.9221 27.1355L30.5554 34.3851V44.4174C38.1032 43.9048 44.1564 38.2662 45.1279 30.9433L42.064 31.7489L38.8505 32.5544L42.4376 29.1126L45.1279 26.4764L48.1919 23.474C48.5656 25.2315 48.8645 27.0622 48.8645 29.0394Z" fill="#ED1B24"/>
<mask id="mask1_108_1088" style="mask-type:luminance" maskUnits="userSpaceOnUse" x="10" y="10" width="39" height="39">
<path d="M48.8645 29.0394C48.8645 29.3323 48.8645 29.6252 48.8645 29.9914C48.4161 39.7308 40.4199 47.5662 30.5554 48.0788C30.1817 48.0788 29.8828 48.0788 29.5092 48.0788C28.3135 48.0788 27.1178 47.9324 25.9221 47.7859V35.7032L19.1216 24.0599L37.3559 19.0803L40.6441 18.2016C37.8043 15.3457 33.8436 13.6614 29.4344 13.6614C20.7656 13.6614 13.7409 20.5449 13.7409 29.0394C13.7409 35.2638 17.5522 40.6827 23.0076 43.0993V47.0536C15.4598 44.4174 10.0044 37.3142 10.0044 29.0394C10.0044 18.4945 18.6732 10 29.4344 10C35.5624 10 41.0177 12.7827 44.6048 17.1032C45.7258 18.4945 46.6973 19.9591 47.3699 21.6433L43.708 22.5953L40.8683 23.3276L25.9221 27.1355L30.5554 34.3851V44.4174C38.1032 43.9048 44.1564 38.2662 45.1279 30.9433L42.064 31.7489L38.8505 32.5544L42.4376 29.1126L45.1279 26.4764L48.1919 23.474C48.5656 25.2315 48.8645 27.0622 48.8645 29.0394Z" fill="white"/>
</mask>
<g mask="url(#mask1_108_1088)">
<path d="M18.8226 28.6002C25.2611 28.6002 30.4806 23.4856 30.4806 17.1765C30.4806 10.8674 25.2611 5.7529 18.8226 5.7529C12.384 5.7529 7.16455 10.8674 7.16455 17.1765C7.16455 23.4856 12.384 28.6002 18.8226 28.6002Z" fill="url(#paint1_radial_108_1088)"/>
</g>
<path d="M185.995 23.0348H181.81V18.934H179.792V23.0348H175.607V24.9387H179.792V29.0395H181.81V24.9387H185.995V23.0348Z" fill="#ED1B24"/>
<path d="M80.6999 28.0143V33.5065C80.6999 36.0695 78.5327 38.1931 75.9172 38.1931H65.8285V33.5065H67.5473H74.3478C75.2446 33.5065 75.9172 32.7742 75.9172 31.9687V29.6254C75.9172 28.7466 75.2446 28.0876 74.3478 28.0876H58.2807C55.8893 28.0876 54.021 26.1836 54.021 23.9136V18.4946C54.021 15.8584 56.1882 13.808 58.8038 13.808H68.5935V18.4946H60.3731C59.4764 18.4946 58.8038 19.2269 58.8038 20.0324V22.3758C58.8038 23.2545 59.4764 23.9136 60.3731 23.9136H76.3655C78.7569 23.9136 80.6252 25.7443 80.6999 28.0143Z" fill="#211F20"/>
<path d="M103.268 18.6408H89.1442C85.856 18.6408 83.1656 21.2038 83.0908 24.4259C83.0908 24.4991 83.0908 24.4991 83.0908 24.5723V30.2109C83.0908 33.5794 85.856 36.2889 89.2936 36.2889H104.09V37.7534C104.09 38.4857 103.567 39.1448 102.895 39.3645V39.4377H94.0764V44.0511H104.165C104.315 44.0511 104.464 44.0511 104.613 44.0511C107.304 43.8314 109.396 41.6346 109.396 38.9251V24.5723C109.322 21.277 106.631 18.6408 103.268 18.6408ZM90.863 31.7487C89.6673 31.7487 88.6211 30.9432 88.3221 29.7715H88.2474V25.3046H88.3221C88.4716 24.0597 89.5926 23.1077 90.863 23.1077H101.475C102.67 23.1077 103.717 23.9133 103.941 25.0117C103.941 25.0849 104.016 25.2314 104.016 25.3046C104.016 25.4511 104.09 25.5243 104.09 25.6707V31.7487H90.863Z" fill="#211F20"/>
<path d="M148.482 24.2795V38.3393H143.25V31.0897V25.744V25.6708C143.176 24.3527 142.129 23.3275 140.71 23.3275H135.105C133.76 23.3275 132.639 24.3527 132.639 25.6708V38.4126H127.407V25.5976C127.333 24.2795 126.212 23.2543 124.867 23.2543H119.336C117.991 23.2543 116.87 24.2795 116.796 25.5976V25.6708V31.0165V38.2661H111.564V24.2795C111.564 21.2039 114.105 18.7141 117.169 18.7141H125.165C127.781 18.7141 129.948 20.8377 129.948 23.4007C129.948 20.8377 132.115 18.7141 134.731 18.7141H142.727C146.015 18.7873 148.482 21.2039 148.482 24.2795Z" fill="#211F20"/>
<path d="M80.7001 28.0143V33.5064C80.7001 36.0694 78.5329 38.193 75.9173 38.193H72.2555C73.9743 37.1678 75.3195 35.5568 75.7679 33.5064C75.9173 32.9938 75.9173 32.5545 75.9173 32.0419C75.9173 31.9686 75.9173 31.9686 75.9173 31.9686V29.6985C75.9173 28.8198 75.2447 28.1607 74.348 28.1607H68.4442C67.7717 28.1607 67.1738 28.0143 66.6507 27.7946C65.2308 27.1355 64.1846 25.671 64.1846 23.9867H75.9173H76.4404C78.7571 23.9135 80.6254 25.7442 80.7001 28.0143Z" fill="#ED1B24"/>
<path d="M79.2045 19.3002H76.5142C75.6921 19.3002 75.0195 18.6411 75.0195 17.8356V15.2726C75.0195 14.4671 75.6921 13.808 76.5142 13.808H79.2045C80.0265 13.808 80.6991 14.4671 80.6991 15.2726V17.9088C80.6991 18.7143 80.0265 19.3002 79.2045 19.3002Z" fill="#ED1B24"/>
<path d="M178.298 24.5725C177.999 21.3505 175.234 18.8607 171.871 18.8607H163.949V22.5954H170.376C171.871 22.5954 173.067 23.767 173.141 25.2316V26.33H155.879C153.113 26.33 150.946 28.5269 150.946 31.1631V33.6529C150.946 36.3623 153.188 38.4859 155.879 38.4859H173.44C176.205 38.4859 178.373 36.2891 178.373 33.6529V25.2316C178.373 25.0119 178.298 24.7922 178.298 24.5725ZM173.141 31.6025C173.141 33.5064 171.572 35.0442 169.629 35.0442H158.419C157.298 35.0442 156.327 34.1655 156.327 32.9938V31.8222C156.327 30.7237 157.224 29.7718 158.419 29.7718H173.067V31.6025H173.141Z" fill="#211F20"/>
<path d="M178.373 26.3298V33.6527C178.373 36.3621 176.131 38.4857 173.44 38.4857H168.209C171.049 37.6802 173.141 35.044 173.141 31.9684V29.7715H154.608C153.113 29.7715 151.768 30.5038 150.946 31.6755V31.1629C150.946 28.4534 153.188 26.3298 155.879 26.3298H178.373Z" fill="#ED1B24"/>
<path d="M112.161 41.0488H112.684V44.7102H112.161V41.0488ZM112.385 42.8063H113.581C113.73 42.8063 113.805 42.8063 113.88 42.733C113.955 42.6598 114.029 42.5866 114.104 42.5134C114.179 42.4401 114.179 42.2937 114.179 42.2204C114.179 42.074 114.179 42.0008 114.104 41.8543C114.029 41.7078 113.955 41.7078 113.88 41.6346C113.805 41.5614 113.73 41.5614 113.581 41.5614H112.385V41.0488H113.581C113.805 41.0488 114.029 41.122 114.179 41.1952C114.328 41.2685 114.478 41.4149 114.553 41.5614C114.627 41.7078 114.702 41.9275 114.702 42.1472C114.702 42.3669 114.627 42.5866 114.553 42.733C114.478 42.8795 114.328 43.026 114.179 43.0992C114.029 43.1724 113.805 43.2456 113.581 43.2456H112.385V42.8063Z" fill="black"/>
<path d="M115.301 41.0488H117.916V41.5614H115.301V41.0488ZM116.347 41.3417H116.87V44.7102H116.347V41.3417Z" fill="black"/>
<path d="M118.141 44.1242H118.664V44.6368H118.141V44.1242Z" fill="black"/>
<path d="M123.819 41.0488H124.342V44.7102H123.819V42.0008V42.1472L122.922 44.1976H122.548L121.652 42.2204V42.0008V44.7102H121.128V41.0488H121.652L122.772 43.4653L123.819 41.0488Z" fill="black"/>
<path d="M125.912 44.7102H125.389V41.0488H125.912V44.7102Z" fill="black"/>
<path d="M126.66 41.0488H129.276V41.5614H126.66V41.0488ZM127.706 41.3417H128.23V44.7102H127.706V41.3417Z" fill="black"/>
<path d="M129.948 41.0487H130.471V44.7102H129.948V41.0487ZM130.172 42.6598H131.443C131.518 42.6598 131.592 42.6598 131.742 42.5865C131.817 42.5133 131.891 42.4401 131.891 42.3668C131.891 42.2936 131.966 42.1472 131.966 42.0739C131.966 41.9275 131.966 41.8543 131.891 41.781C131.817 41.7078 131.817 41.6346 131.742 41.5613C131.667 41.4881 131.592 41.4881 131.443 41.4881H130.172V40.9755H131.443C131.667 40.9755 131.817 41.0487 132.041 41.122C132.19 41.1952 132.34 41.3417 132.414 41.4881C132.489 41.6346 132.564 41.8543 132.564 42.0739C132.564 42.2936 132.489 42.4401 132.414 42.6598C132.34 42.8794 132.19 42.9527 132.041 43.0259C131.891 43.0991 131.667 43.1724 131.443 43.1724H130.172V42.6598ZM131.144 43.0259L131.667 42.8794L132.639 44.6369H132.041L131.144 43.0259Z" fill="black"/>
<path d="M134.357 41.0488H134.805L136.15 44.7102H135.553L134.506 41.7811L133.46 44.7102H132.862L134.357 41.0488ZM133.61 43.3921H135.553V43.9047H133.61V43.3921Z" fill="black"/>
<path d="M139.289 44.7102C139.289 44.7102 139.215 44.7102 139.065 44.637C138.916 44.637 138.766 44.5638 138.617 44.4905C138.467 44.4173 138.318 44.3441 138.243 44.2708L138.542 43.9047C138.692 44.0512 138.841 44.1244 138.99 44.1976C139.14 44.2708 139.364 44.2708 139.514 44.2708C139.813 44.2708 139.962 44.1976 140.111 44.1244C140.261 44.0512 140.336 43.9047 140.336 43.685C140.336 43.5386 140.336 43.4653 140.261 43.3921C140.186 43.3189 140.111 43.2456 140.037 43.2456C139.962 43.2456 139.813 43.1724 139.588 43.1724H139.514C139.289 43.0992 139.065 43.0992 138.916 43.026C138.766 42.9527 138.617 42.8795 138.542 42.733C138.467 42.5866 138.393 42.3669 138.393 42.1472C138.393 41.9275 138.467 41.7078 138.542 41.5614C138.617 41.4149 138.766 41.2685 138.99 41.1952C139.215 41.122 139.439 41.0488 139.738 41.0488C139.887 41.0488 140.037 41.0488 140.111 41.122C140.186 41.1952 140.336 41.1952 140.485 41.2685C140.635 41.3417 140.709 41.4149 140.859 41.4882L140.56 41.9275C140.41 41.8543 140.261 41.7811 140.111 41.7078C139.962 41.6346 139.813 41.6346 139.663 41.6346C139.439 41.6346 139.215 41.7078 139.065 41.7811C138.916 41.8543 138.841 42.0008 138.841 42.2204C138.841 42.3669 138.841 42.4401 138.916 42.5134C138.99 42.5866 139.065 42.6598 139.215 42.6598C139.364 42.6598 139.439 42.733 139.663 42.733C139.887 42.8063 140.111 42.8063 140.261 42.8795C140.41 42.9527 140.56 43.026 140.635 43.1724C140.709 43.3189 140.784 43.4653 140.784 43.7582C140.784 43.9779 140.709 44.1976 140.635 44.3441C140.56 44.4905 140.336 44.637 140.186 44.7102C139.962 44.7834 139.738 44.8567 139.439 44.8567C139.364 44.7102 139.289 44.7102 139.289 44.7102Z" fill="#ED1B24"/>
<path d="M142.279 44.7102H141.756V41.0488H142.279V44.7102Z" fill="#ED1B24"/>
<path d="M145.865 42.733V43.3921C145.865 43.685 145.79 43.9047 145.715 44.1244C145.64 44.3441 145.491 44.4905 145.267 44.637C145.043 44.7834 144.818 44.7834 144.594 44.7834C144.295 44.7834 144.071 44.7102 143.922 44.637C143.772 44.5638 143.548 44.4173 143.473 44.1976C143.398 43.9779 143.324 43.7582 143.324 43.5386V42.4401C143.324 42.1472 143.398 41.9275 143.473 41.7078C143.548 41.4882 143.697 41.3417 143.922 41.1952C144.146 41.0488 144.37 41.0488 144.594 41.0488C144.818 41.0488 144.968 41.122 145.192 41.1952C145.416 41.2685 145.491 41.4149 145.64 41.5614C145.79 41.7078 145.865 41.9275 145.865 42.1472H145.267C145.267 42.0008 145.192 41.9275 145.117 41.8543C145.043 41.7811 144.968 41.7078 144.893 41.6346C144.818 41.5614 144.669 41.5614 144.594 41.5614C144.445 41.5614 144.295 41.5614 144.221 41.6346C144.071 41.7078 143.996 41.7811 143.922 41.9275C143.847 42.074 143.772 42.2204 143.772 42.3669V43.4653C143.772 43.6118 143.772 43.7582 143.847 43.9047C143.922 44.0512 143.996 44.1244 144.146 44.1976C144.295 44.2708 144.37 44.2708 144.519 44.2708C144.669 44.2708 144.818 44.2708 144.893 44.1976C145.043 44.1244 145.117 44.0512 145.192 43.9047C145.267 43.7582 145.267 43.6118 145.267 43.4653V43.3189H144.519V42.8063H145.865V42.733Z" fill="#ED1B24"/>
<path d="M149.453 41.0488H149.976V44.7102H149.453V42.0008V42.1472L148.556 44.1976H148.182L147.285 42.2204V42.0008V44.7102H146.762V41.0488H147.285L148.406 43.4653L149.453 41.0488Z" fill="#ED1B24"/>
<path d="M151.993 41.0488H152.441L153.786 44.7102H153.188L152.142 41.7811L151.096 44.7102H150.498L151.993 41.0488ZM151.245 43.3921H153.188V43.9047H151.245V43.3921Z" fill="#ED1B24"/>
<path d="M155.505 41.0488H158.121V41.5614H155.505V41.0488ZM156.552 41.3417H157.075V44.7102H156.552V41.3417Z" fill="black"/>
<path d="M158.795 41.0488H159.318V44.7102H158.795V41.0488ZM159.019 41.0488H161.186V41.5614H159.019V41.0488ZM159.019 42.6598H160.887V43.1724H159.019V42.6598ZM159.019 44.1976H161.186V44.7102H159.019V44.1976Z" fill="black"/>
<path d="M162.082 41.0488H162.605V44.7102H162.082V41.0488ZM162.456 43.0992L164.1 41.0488H164.772L162.381 43.8315L162.456 43.0992ZM163.054 42.733L163.427 42.3669L164.847 44.7102H164.174L163.054 42.733Z" fill="black"/>
<path d="M166.117 44.7102H165.594V41.0488H166.117V44.7102Z" fill="black"/>
<path d="M167.164 41.0488H167.612L169.406 43.8315L169.331 43.9047V41.0488H169.854V44.7102H169.406L167.612 41.9275L167.687 41.8543V44.7102H167.164V41.0488Z" fill="black"/>
<path d="M170.974 41.0487H171.497V44.7102H170.974V41.0487ZM171.348 44.1976H172.17C172.469 44.1976 172.693 44.1243 172.842 43.9779C172.992 43.8314 173.067 43.6117 173.067 43.392V42.2936C173.067 42.0739 172.992 41.8543 172.842 41.7078C172.693 41.5613 172.469 41.4881 172.17 41.4881H171.348V40.9755H172.17C172.469 40.9755 172.693 41.0487 172.917 41.122C173.141 41.1952 173.291 41.3417 173.366 41.5613C173.44 41.781 173.515 42.0007 173.515 42.2936V43.3188C173.515 43.6117 173.44 43.8314 173.366 44.0511C173.291 44.2708 173.067 44.4172 172.917 44.4905C172.693 44.5637 172.469 44.6369 172.17 44.6369H171.348V44.1976Z" fill="black"/>
<path d="M175.011 44.5638C174.787 44.4173 174.637 44.2708 174.563 44.1244C174.488 43.9047 174.413 43.685 174.413 43.3921V42.3669C174.413 42.074 174.488 41.8543 174.563 41.6346C174.637 41.4149 174.787 41.2685 175.011 41.1952C175.235 41.0488 175.459 41.0488 175.684 41.0488C175.908 41.0488 176.207 41.122 176.356 41.1952C176.58 41.3417 176.73 41.4882 176.804 41.6346C176.879 41.8543 176.954 42.074 176.954 42.3669V43.3921C176.954 43.685 176.879 43.9047 176.804 44.1244C176.73 44.3441 176.58 44.4905 176.356 44.5638C176.132 44.7102 175.908 44.7102 175.684 44.7102C175.459 44.7102 175.235 44.7102 175.011 44.5638ZM176.132 44.1244C176.281 44.0512 176.356 43.9779 176.431 43.8315C176.506 43.685 176.506 43.5386 176.506 43.3921V42.2937C176.506 42.1472 176.506 42.0008 176.431 41.8543C176.356 41.7078 176.281 41.6346 176.132 41.5614C175.982 41.4882 175.908 41.4882 175.758 41.4882C175.609 41.4882 175.459 41.4882 175.385 41.5614C175.235 41.6346 175.16 41.7078 175.086 41.8543C175.011 42.0008 175.011 42.1472 175.011 42.2937V43.3921C175.011 43.5386 175.011 43.685 175.086 43.8315C175.16 43.9779 175.235 44.0512 175.385 44.1244C175.534 44.1976 175.609 44.1976 175.758 44.1976C175.908 44.1976 175.982 44.1976 176.132 44.1244Z" fill="black"/>
</g>
<defs>
<radialGradient id="paint0_radial_108_1088" cx="0" cy="0" r="1" gradientUnits="userSpaceOnUse" gradientTransform="translate(29.4402 29.0062) scale(25.2828 24.7745)">
<stop stop-color="white"/>
<stop offset="1"/>
</radialGradient>
<radialGradient id="paint1_radial_108_1088" cx="0" cy="0" r="1" gradientUnits="userSpaceOnUse" gradientTransform="translate(19.0662 17.7444) scale(8.91092 8.73176)">
<stop stop-color="white"/>
<stop offset="1" stop-color="white" stop-opacity="0"/>
</radialGradient>
</defs>
</svg>
